<svg width="8" height="17" viewBox="0 0 8 17" fill="none" xmlns="http://www.w3.org/2000/svg">
<path d="M5.33203 17H1.95898V4.38867C1.95898 3.49349 2.13444 2.74154 2.48535 2.13281C2.84342 1.52409 3.34831 1.06217 4 0.74707C4.65169 0.431966 5.42155 0.274414 6.30957 0.274414C6.61751 0.274414 6.90397 0.295898 7.16895 0.338867C7.44108 0.374674 7.70605 0.424805 7.96387 0.489258V2.99219C7.8278 2.95638 7.68815 2.93132 7.54492 2.91699C7.40169 2.90267 7.22982 2.89551 7.0293 2.89551C6.67122 2.89551 6.36328 2.9528 6.10547 3.06738C5.85482 3.1748 5.66146 3.3431 5.52539 3.57227C5.39648 3.79427 5.33203 4.06641 5.33203 4.38867V17ZM7.63086 5.37695V7.72949H0.261719V5.37695H7.63086Z" fill="white"/>
</svg>
