<svg width="18" height="18" viewBox="0 0 18 18" fill="none" xmlns="http://www.w3.org/2000/svg">
<g clip-path="url(#clip0_754_3693)">
<path d="M17.4881 7.37829C17.5932 7.98235 17.6455 8.59441 17.6445 9.20754C17.6445 11.9458 16.6658 14.261 14.9625 15.8282H14.9648C13.4753 17.204 11.4277 18.0005 9 18.0005C6.61305 18.0005 4.32387 17.0523 2.63604 15.3645C0.948212 13.6767 0 11.3875 0 9.00054C0 6.61359 0.948212 4.3244 2.63604 2.63658C4.32387 0.948749 6.61305 0.000537753 9 0.000537753C11.2339 -0.0243404 13.3911 0.814832 15.021 2.34279L12.4515 4.91229C11.5225 4.0272 10.283 3.54239 9 3.56229C6.65213 3.56229 4.6575 5.14629 3.9465 7.27929C3.57018 8.39709 3.57018 9.60736 3.9465 10.7252H3.94987C4.66425 12.8548 6.6555 14.4388 9.00338 14.4388C10.2161 14.4388 11.2579 14.1283 12.0656 13.5793H12.0623C12.5314 13.2687 12.9326 12.8662 13.2418 12.3961C13.551 11.926 13.7617 11.3982 13.8611 10.8444H9V7.37941L17.4881 7.37829Z" fill="white"/>
</g>
<defs>
<clipPath id="clip0_754_3693">
<rect width="18" height="18" fill="white"/>
</clipPath>
</defs>
</svg>
